# xmcd CD database file
#
# Track frame offsets:
#	183
#	11440
#	24495
#	35528
#	47553
#	61213
#	74228
#	86173
#	99738
#	119310
#	128973
#	165778
#
# Disc length: 4208 seconds
#
# Revision: 3
# Processed by: cddbd v1.5.2PL0 Copyright (c) Steve Scherf et al.
# Submitted via: CDex 1.51
#
DISCID=9c106e0c
DTITLE=Jayne Mansfield - Too Hot To Handle
DYEAR=1993
DGENRE=Easy Listening
TTITLE0=That Makes It
TTITLE1=Little Things Mean A Lot
TTITLE2=As The Clouds Drift By
TTITLE3=Suey
TTITLE4=Too Hot To Handle (from "Too Hot To Handle")
TTITLE5=You Were Made For Me (from "Too Hot To Handle")
TTITLE6=Wo Ist Der Mann? (from "Heimweh nach St.Pauli")
TTITLE7=Snicksnack-Snuckelchen (from "Heimweh nach St.Pauli")
TTITLE8=It's A Living (from the  Musical"Les Poupees de Paris")
TTITLE9=The Best Things In Life (Interview)
TTITLE10=The Jack Benny Show
TTITLE11=Jane Manfield Welcomes You To Her House Of Love (Live at the Dunes Hotel, Las Vegas)
EXTD=YEAR: 1993
EXTT0=
EXTT1=
EXTT2=
EXTT3=
EXTT4=
EXTT5=
EXTT6=
EXTT7=
EXTT8=
EXTT9=
EXTT10=
EXTT11=
PLAYORDER=
